<svg width="109" height="40" viewBox="0 0 109 40" fill="none" xmlns="http://www.w3.org/2000/svg">
<g clip-path="url(#clip0_220_908)">
<path d="M4.2685 3.64227C4.22935 0.757101 0.830078 1.54754 0.830078 0.678195C0.830078 0.322087 1.14623 0.243032 1.46237 0.243933C2.92494 0.243933 4.34746 0.400946 5.81002 0.400946C7.0355 0.400946 8.26016 0.243863 9.48561 0.242833C10.1579 0.242833 10.2369 0.480767 10.2369 0.638902C10.2369 1.42832 7.39069 0.678149 7.39069 3.64227V12.1796C7.39069 12.7328 7.39081 12.891 7.984 12.891H22.4498C22.845 12.891 22.7659 11.9026 22.7659 11.7446V3.64227C22.7659 0.915159 19.8018 1.58645 19.8018 0.678038C19.8018 0.440873 19.8808 0.242875 20.4731 0.243776C21.7776 0.243776 23.8324 0.400789 24.5837 0.400789C26.0463 0.400789 26.6394 0.243706 27.4298 0.242676C28.4572 0.242676 28.5362 0.638786 28.5362 0.874972C28.5362 1.58626 25.8882 0.91495 25.8882 3.64212V24.5896C25.8882 27.4757 29.4848 26.7644 29.4848 27.7519C29.4848 27.8709 29.3266 28.2261 29.0505 28.2261C27.9831 28.2261 26.7576 28.068 25.335 28.068C22.805 28.068 21.6986 28.2261 20.9482 28.2261C20.5921 28.2261 19.9989 28.345 19.9989 27.7128C19.9989 26.7644 22.7659 27.3176 22.7659 24.8276V15.3417C22.7659 14.7086 22.9241 14.3534 22.4498 14.3534H7.86503C7.39083 14.3534 7.39069 14.5905 7.39069 15.0247V24.8667C7.39069 27.5548 11.1453 26.6853 11.1453 27.9099C11.1453 28.1079 10.8691 28.2261 10.513 28.2261C9.99977 28.2261 7.1146 28.068 5.01977 28.068C2.21363 28.068 1.77842 28.2261 1.62033 28.2261C1.30421 28.2261 1.18528 28.029 1.18528 27.6337C1.18528 26.4873 4.2685 27.7918 4.2685 23.8783V3.64227Z" fill="#211E1E"/>
<path d="M45.7691 -0.112305C53.1991 -0.112305 55.2549 2.93099 56.4013 2.93099C56.7175 2.93099 56.9545 2.53586 57.3497 2.53586C57.7839 2.53586 57.784 3.16805 57.9029 5.73711C57.982 7.83194 58.3372 9.13655 57.6658 9.13655C57.1916 9.13655 56.9146 8.10821 56.7565 7.83203C54.3065 3.60329 51.5002 1.03425 46.4012 1.03425C38.6941 1.03425 34.9787 6.17233 34.9787 13.5233C34.9787 20.4011 38.9313 27.2778 46.5194 27.2778C52.7249 27.2778 56.5984 23.3252 57.1916 21.5074C57.2707 21.2313 57.5077 20.9943 57.7448 20.9943C57.9418 20.9943 58.14 21.2315 58.1 21.4285L57.1916 25.3811C57.1517 25.5392 54.3455 28.5034 45.4529 28.5034C37.3497 28.5034 31.5403 22.9301 31.5403 14.7488C31.5403 6.56745 37.4288 -0.112305 45.7691 -0.112305Z" fill="#211E1E"/>
<path d="M60.4715 21.2313C60.3126 20.44 60.5106 20.0058 60.9057 20.0058C61.4589 20.0058 61.459 20.48 61.657 21.3103C62.1312 23.1281 64.5022 27.2386 69.9564 27.2386C73.7118 27.2386 77.3883 25.1438 77.3883 20.9941C77.3883 13.3651 61.3409 17.6338 61.3409 7.31856C61.3409 2.29857 65.5696 -0.112305 70.1145 -0.112305C74.8974 -0.112305 76.201 1.31024 76.756 1.31024C77.1112 1.31024 77.1903 0.875983 77.5854 0.875983C77.8226 0.875983 78.0205 0.994189 78.0596 1.42922L78.6528 6.80445C78.6919 7.12057 78.6129 7.39761 78.2177 7.39761C77.7835 7.39761 77.5064 6.56741 77.3883 6.21223C76.201 2.81287 73.3167 1.07323 69.8383 1.07323C66.7161 1.07323 63.3966 2.57578 63.3966 6.21223C63.3966 13.6423 79.4432 9.29446 79.4432 20.2029C79.4432 23.5232 77.1113 28.5032 68.1387 28.5032C65.2136 28.5032 61.617 27.0415 61.459 26.3302L60.4715 21.2313Z" fill="#211E1E"/>
<path d="M96.28 -0.112305C103.71 -0.112305 105.765 2.93099 106.912 2.93099C107.228 2.93099 107.465 2.53586 107.861 2.53586C108.295 2.53586 108.295 3.16805 108.414 5.73711C108.493 7.83194 108.848 9.13655 108.177 9.13655C107.703 9.13655 107.426 8.10821 107.268 7.83203C104.817 3.60329 102.011 1.03425 96.9122 1.03425C89.2041 1.03425 85.4897 6.17233 85.4897 13.5233C85.4897 20.4011 89.4413 27.2778 97.0304 27.2778C103.236 27.2778 107.109 23.3252 107.703 21.5074C107.782 21.2313 108.019 20.9943 108.256 20.9943C108.453 20.9943 108.651 21.2315 108.611 21.4285L107.703 25.3811C107.663 25.5392 104.856 28.5034 95.9638 28.5034C87.8606 28.5034 82.0503 22.9301 82.0503 14.7488C82.0503 6.56745 87.9397 -0.112305 96.28 -0.112305Z" fill="#211E1E"/>
<path d="M6.93424 37.3382C6.93424 38.3747 7.78265 38.0732 7.78265 38.3911C7.78265 38.4975 7.71728 38.4892 7.61196 38.4892C7.34217 38.4892 6.86071 38.4565 6.52639 38.4565C6.23205 38.4565 5.91407 38.4892 5.49802 38.4892C5.38369 38.4892 5.3344 38.4565 5.3344 38.3993C5.3344 38.1131 5.9304 38.3339 5.9304 37.5418V36.0728C5.9304 35.7295 5.9561 35.6405 5.59515 35.6405H3.41677C3.04068 35.6405 3.01614 35.7213 3.01614 36.081V37.3627C3.01614 38.3748 4.02816 38.0804 4.02816 38.3748C4.02816 38.4237 4.04359 38.4892 3.78376 38.4892C3.44944 38.4892 3.1797 38.4565 2.59194 38.4565C2.24948 38.4565 1.90608 38.4892 1.49819 38.4892C1.40008 38.4892 1.31917 38.4737 1.31917 38.3666C1.31917 38.0396 2.01229 38.3339 2.01229 37.3219V33.6809C2.01229 32.7915 1.09033 33.1513 1.09033 32.8406C1.09033 32.7188 1.33546 32.7105 1.49002 32.7105C1.73516 32.7105 1.9796 32.7422 2.40475 32.7422C2.89347 32.7422 3.22052 32.7105 3.45763 32.7105C3.57119 32.7105 3.64482 32.7504 3.64482 32.8323C3.64482 33.0857 3.01614 32.8478 3.01614 33.5754V34.8727C3.01614 35.0934 3.04886 35.1998 3.22062 35.1998H5.64434C5.88151 35.1998 5.93055 35.0118 5.93055 34.8328V33.6809C5.93055 32.7833 5.03201 33.0776 5.03201 32.8405C5.03201 32.6942 5.10658 32.7105 5.22014 32.7105C5.55534 32.7105 5.76687 32.7422 6.27287 32.7422C6.69711 32.7422 6.99962 32.7105 7.35027 32.7105C7.48933 32.7105 7.52206 32.7363 7.52206 32.8076C7.52206 33.1183 6.9344 32.7667 6.9344 33.5671L6.93424 37.3382Z" fill="#211E1E"/>
<path d="M8.60748 36.489C8.46044 36.489 8.42768 36.4318 8.42768 36.6924C8.42768 37.3946 8.92636 38.0315 9.63585 38.0315C10.1173 38.0315 10.5171 37.5989 10.6479 37.5989C10.6806 37.5989 10.7296 37.6066 10.7296 37.697C10.7296 37.9005 10.0436 38.5456 9.20331 38.5456C8.39481 38.5456 7.59546 38.0315 7.59546 36.9132C7.59546 35.9748 8.12592 34.9536 9.17879 34.9536C10.2725 34.9536 10.7132 35.8848 10.7132 36.3091C10.7132 36.489 10.6642 36.489 10.6158 36.489H8.60748ZM9.64402 36.2028C9.78307 36.2028 9.83199 36.2106 9.83199 35.9829C9.83199 35.6732 9.60306 35.1908 9.08889 35.1908C8.59927 35.1908 8.41935 35.6731 8.41935 36.0483C8.41935 36.1781 8.43487 36.2028 8.46037 36.2028H9.64402Z" fill="#211E1E"/>
<path d="M13.7738 37.5581C13.7738 37.966 13.7815 38.0642 13.9945 38.0642C14.0918 38.0642 14.198 38.0232 14.2553 38.0232C14.3124 38.0232 14.3452 38.056 14.3452 38.0969C14.3452 38.2594 13.8473 38.5456 13.553 38.5456C13.1696 38.5456 13.0551 38.2195 13.0234 38.0479C12.68 38.3249 12.1986 38.5456 11.7498 38.5456C11.301 38.5456 10.9822 38.2277 10.9822 37.7789C10.9822 36.7752 12.0677 36.6361 12.9089 36.4235C12.9089 35.7213 12.8518 35.2245 12.2067 35.2245C11.8969 35.2245 11.8306 35.3053 11.8306 35.6813C11.8306 36.0647 11.3091 36.0647 11.2519 36.0647C11.1865 36.0647 11.0395 36.0492 11.0395 35.8929C11.0395 35.1834 11.9616 34.9546 12.533 34.9546C13.3742 34.9546 13.7738 35.3297 13.7738 36.1536V37.5581ZM12.9091 36.995C12.9091 36.7751 12.9245 36.7006 12.8519 36.7006C12.533 36.7006 11.8889 36.9786 11.8889 37.5254C11.8889 37.6562 11.8967 38.0642 12.3214 38.0642C12.5004 38.0642 12.9091 37.9743 12.9091 37.7871V36.995Z" fill="#211E1E"/>
<path d="M14.9414 33.4447C14.9414 32.9633 14.4026 33.2239 14.4026 32.9877C14.4026 32.8486 14.5252 32.8814 15.0476 32.7016C15.6763 32.5226 15.6508 32.3755 15.7898 32.3755C15.8961 32.3755 15.8052 32.6044 15.8052 33.0614V37.738C15.8052 38.3176 16.4093 38.203 16.4093 38.3829C16.4093 38.4647 16.3767 38.4893 16.2387 38.4893C16.0751 38.4893 15.569 38.4566 15.3238 38.4566C15.1366 38.4566 14.7689 38.4893 14.5972 38.4893C14.5328 38.4893 14.459 38.4893 14.459 38.4077C14.459 38.1543 14.9406 38.4813 14.9406 37.7136L14.9414 33.4447Z" fill="#211E1E"/>
<path d="M17.0307 35.5094H16.7774C16.6229 35.5094 16.5657 35.4358 16.5657 35.3869C16.5657 35.208 16.7037 35.1834 16.9327 34.9707C17.5449 34.3912 17.6595 34.0151 17.7976 34.0151C17.863 34.0151 17.8956 34.0723 17.8956 34.105V34.9789C17.8956 35.0605 17.9854 35.0605 18.0753 35.0605H18.6386C18.8258 35.0605 18.7777 34.8805 18.8993 34.8805C18.932 34.8805 18.9482 34.9063 18.9482 34.9377C18.9482 34.9949 18.8665 35.1749 18.8418 35.2403C18.7854 35.3538 18.7855 35.5009 18.6791 35.5009H17.8952V37.6312C17.8952 37.9164 17.9524 38.0799 18.2713 38.0799C18.6792 38.0799 18.8336 37.8837 18.9235 37.8837C18.9807 37.8837 19.0134 37.9095 19.0134 38.0063C19.0134 38.1454 18.5482 38.5459 17.8787 38.5459C16.9485 38.5459 17.0303 37.8428 17.0303 37.6312L17.0307 35.5094Z" fill="#211E1E"/>
<path d="M22.7854 37.7953C22.7854 38.3495 23.2914 38.1297 23.2914 38.4149C23.2914 38.4638 23.2504 38.4886 23.2177 38.4886C22.9243 38.4886 22.6217 38.4559 22.3283 38.4559C22.1238 38.4559 21.9287 38.4886 21.6507 38.4886C21.6098 38.4886 21.5198 38.5143 21.5198 38.4069C21.5198 38.2516 21.9204 38.2279 21.9204 37.7791V36.5873C21.9204 36.0404 21.8061 35.4691 21.1201 35.4691C20.9167 35.4691 20.7123 35.5755 20.5652 35.6981C20.4426 35.8034 20.4099 35.8116 20.4099 35.967V37.7301C20.4099 38.2924 21.0547 38.1625 21.0547 38.3905C21.0547 38.5214 20.9167 38.4888 20.6878 38.4888C20.4179 38.4888 20.2717 38.4561 19.8548 38.4561C19.6104 38.4561 19.5205 38.4888 19.357 38.4888C19.2916 38.4888 19.1126 38.4965 19.1126 38.3989C19.1126 38.1872 19.545 38.2771 19.545 37.9256V33.4452C19.545 32.9637 19.0063 33.2245 19.0063 32.9883C19.0063 32.8492 19.1288 32.8819 19.6512 32.7021C20.2798 32.5223 20.2554 32.375 20.3935 32.375C20.4999 32.375 20.4089 32.604 20.4089 33.0618V35.5509H20.4243C20.6941 35.2085 21.102 34.955 21.5508 34.955C22.3429 34.955 22.7836 35.4282 22.7836 36.3748L22.7854 37.7953Z" fill="#211E1E"/>
<path d="M30.8983 34.4643C30.906 34.5459 30.9393 34.7342 30.8002 34.7342C30.6694 34.7342 30.6122 34.5623 30.5558 34.4561C30.1479 33.673 29.4295 32.9627 28.4819 32.9627C27.2828 32.9627 26.6214 34.1055 26.6214 35.1992C26.6214 36.3502 27.2745 37.9664 28.8334 37.9664C30.0988 37.9664 30.653 36.8971 30.8656 36.8971C30.9065 36.8971 30.9802 36.9381 30.9802 36.9863C30.9802 37.3133 30.1154 38.546 28.3766 38.546C25.9848 38.546 25.6177 36.4565 25.6177 35.8116C25.6177 34.4398 26.458 32.6367 28.5146 32.6367C29.503 32.6367 30.1317 33.1345 30.376 33.1345C30.5313 33.1345 30.5395 32.8646 30.6531 32.8646C30.694 32.8646 30.7513 32.8725 30.7513 32.9137L30.8983 34.4643Z" fill="#211E1E"/>
<path d="M33.9429 37.5581C33.9429 37.966 33.9506 38.0642 34.1636 38.0642C34.2607 38.0642 34.3671 38.0232 34.4244 38.0232C34.4815 38.0232 34.5141 38.056 34.5141 38.0969C34.5141 38.2594 34.0163 38.5456 33.722 38.5456C33.3386 38.5456 33.2242 38.2195 33.1925 38.0479C32.8491 38.3249 32.3675 38.5456 31.9187 38.5456C31.47 38.5456 31.1511 38.2277 31.1511 37.7789C31.1511 36.7752 32.2366 36.6361 33.0779 36.4235C33.0779 35.7213 33.0207 35.2245 32.3756 35.2245C32.0659 35.2245 32.0005 35.3053 32.0005 35.6813C32.0005 36.0647 31.4782 36.0647 31.421 36.0647C31.3556 36.0647 31.2085 36.0492 31.2085 35.8929C31.2085 35.1834 32.1314 34.9546 32.7019 34.9546C33.5431 34.9546 33.9429 35.3297 33.9429 36.1536V37.5581ZM33.078 36.995C33.078 36.7751 33.0934 36.7006 33.0208 36.7006C32.702 36.7006 32.058 36.9786 32.058 37.5254C32.058 37.6562 32.0657 38.0642 32.4904 38.0642C32.6693 38.0642 33.0782 37.9743 33.0782 37.7871L33.078 36.995Z" fill="#211E1E"/>
<path d="M36.0079 37.6076C36.0079 38.3579 36.7664 38.1136 36.7664 38.3498C36.7664 38.3987 36.7337 38.4887 36.6446 38.4887C36.4484 38.4887 35.9834 38.456 35.7135 38.456C35.3302 38.456 35.0939 38.4887 34.8895 38.4887C34.7831 38.4887 34.7506 38.4733 34.7506 38.4071C34.7506 38.1545 35.143 38.3662 35.143 37.763V35.8445C35.143 35.4529 34.6196 35.6817 34.6196 35.4529C34.6196 35.3221 34.7422 35.3139 35.0284 35.2412C35.7134 35.086 35.8116 34.8896 35.9097 34.8896C36.0078 34.8896 36.0078 34.9469 36.0078 35.0533V35.6818C36.3666 35.2575 36.6609 34.9552 36.8643 34.9552C37.0688 34.9552 37.5094 35.3221 37.5094 35.4775C37.5094 35.7791 37.2323 36.1624 37.0852 36.1624C36.9216 36.1624 36.8806 35.8363 36.432 35.8363C35.9832 35.8363 36.0078 36.4568 36.0078 36.5222L36.0079 37.6076Z" fill="#211E1E"/>
<path d="M38.7094 36.489C38.5623 36.489 38.5297 36.4318 38.5297 36.6924C38.5297 37.3946 39.0284 38.0315 39.7379 38.0315C40.2194 38.0315 40.62 37.5989 40.7499 37.5989C40.7826 37.5989 40.8315 37.6066 40.8315 37.697C40.8315 37.9005 40.1457 38.5456 39.3054 38.5456C38.4969 38.5456 37.6975 38.0315 37.6975 36.9132C37.6975 35.9748 38.228 34.9536 39.2808 34.9536C40.3746 34.9536 40.8151 35.8848 40.8151 36.3091C40.8151 36.489 40.7663 36.489 40.7171 36.489H38.7094ZM39.7459 36.2028C39.885 36.2028 39.9339 36.2106 39.9339 35.9829C39.9339 35.6732 39.705 35.1908 39.1908 35.1908C38.7012 35.1908 38.5214 35.6731 38.5214 36.0483C38.5214 36.1781 38.5368 36.2028 38.5623 36.2028H39.7459Z" fill="#211E1E"/>
<path d="M43.4517 36.8154C43.426 36.7008 43.3453 36.4648 43.5498 36.4648C43.6806 36.4648 43.6971 36.5385 43.7298 36.6438C43.9905 37.4268 44.4965 38.1708 45.4022 38.1708C46.039 38.1708 46.5287 37.7783 46.5287 37.1252C46.5287 36.4321 46.0145 36.3258 44.7009 35.7462C43.9987 35.4355 43.5171 35.1176 43.5171 34.2609C43.5171 33.3216 44.1704 32.6367 45.1251 32.6367C45.7946 32.6367 46.137 32.9547 46.3823 32.9547C46.4887 32.9547 46.6921 32.8238 46.7984 32.8238C46.9209 32.8238 46.8966 32.9464 46.9131 33.1345L47.002 34.2282C47.0175 34.408 46.9943 34.5053 46.8149 34.5053C46.6269 34.5053 46.5043 32.9874 45.1008 32.9874C44.5621 32.9874 44.194 33.2971 44.194 33.8439C44.194 34.3917 44.6437 34.4971 45.7375 34.9786C46.6105 35.3619 47.1492 35.7135 47.1492 36.75C47.1492 37.8193 46.3988 38.546 45.3287 38.546C44.8308 38.546 44.4149 38.3498 43.9416 38.2444C43.7382 38.1955 43.7463 38.13 43.7054 37.9337L43.4517 36.8154Z" fill="#211E1E"/>
<path d="M48.4876 36.489C48.3406 36.489 48.3078 36.4318 48.3078 36.6924C48.3078 37.3946 48.8065 38.0315 49.516 38.0315C49.9975 38.0315 50.3972 37.5989 50.528 37.5989C50.5607 37.5989 50.6096 37.6066 50.6096 37.697C50.6096 37.9005 49.9237 38.5456 49.0834 38.5456C48.2749 38.5456 47.4756 38.0315 47.4756 36.9132C47.4756 35.9748 48.006 34.9536 49.0589 34.9536C50.1527 34.9536 50.5932 35.8848 50.5932 36.3091C50.5932 36.489 50.5443 36.489 50.4951 36.489H48.4876ZM49.524 36.2028C49.663 36.2028 49.712 36.2106 49.712 35.9829C49.712 35.6732 49.4832 35.1908 48.969 35.1908C48.4794 35.1908 48.2995 35.6731 48.2995 36.0483C48.2995 36.1781 48.3148 36.2028 48.3403 36.2028H49.524Z" fill="#211E1E"/>
<path d="M52.0953 37.6076C52.0953 38.3579 52.8538 38.1136 52.8538 38.3498C52.8538 38.3987 52.8211 38.4887 52.732 38.4887C52.5358 38.4887 52.0708 38.456 51.8009 38.456C51.4176 38.456 51.1813 38.4887 50.9769 38.4887C50.8705 38.4887 50.838 38.4733 50.838 38.4071C50.838 38.1545 51.2303 38.3662 51.2303 37.763V35.8445C51.2303 35.4529 50.707 35.6817 50.707 35.4529C50.707 35.3221 50.8296 35.3139 51.1158 35.2412C51.8008 35.086 51.899 34.8896 51.9971 34.8896C52.0952 34.8896 52.0952 34.9469 52.0952 35.0533V35.6818C52.454 35.2575 52.7473 34.9552 52.9517 34.9552C53.1562 34.9552 53.5968 35.3221 53.5968 35.4775C53.5968 35.7791 53.3197 36.1624 53.1726 36.1624C53.009 36.1624 52.968 35.8363 52.5194 35.8363C52.0706 35.8363 52.0952 36.4568 52.0952 36.5222L52.0953 37.6076Z" fill="#211E1E"/>
<path d="M55.7443 37.2566C55.7597 37.2823 55.8007 37.4272 55.8661 37.4272C55.915 37.4272 55.9879 37.2645 56.0052 37.232L56.4948 36.2609C56.5846 36.0891 56.7238 35.7948 56.7238 35.6322C56.7238 35.2407 56.2004 35.4033 56.2004 35.1835C56.2004 35.0527 56.2903 35.0445 56.4621 35.0445C56.6338 35.0445 56.8054 35.0772 56.968 35.0772C57.0906 35.0772 57.2132 35.0445 57.3768 35.0445C57.4739 35.0445 57.5477 35.0599 57.5477 35.1426C57.5477 35.2971 57.3198 35.2806 57.1888 35.5505L55.6954 38.4647C55.6465 38.5628 55.6382 38.62 55.5563 38.62C55.4827 38.62 55.4664 38.5546 55.4337 38.4809L54.0865 35.6647C53.8665 35.2078 53.6387 35.3214 53.6387 35.1506C53.6387 35.0443 53.7849 35.0442 53.9975 35.0442C54.1682 35.0442 54.2664 35.0769 54.569 35.0769C54.7724 35.0769 55.0913 35.0442 55.2621 35.0442C55.3437 35.0442 55.5154 35.0184 55.5154 35.1423C55.5154 35.3622 54.9031 35.265 55.042 35.5912L55.7443 37.2566Z" fill="#211E1E"/>
<path d="M58.1601 35.8441C58.1601 35.4526 57.6367 35.6814 57.6367 35.4526C57.6367 35.3218 57.7593 35.3135 58.0455 35.2409C58.7314 35.0856 58.8287 34.8893 58.9268 34.8893C59.0259 34.8893 59.0259 34.9464 59.0259 35.0527V37.8035C59.0259 38.325 59.6208 38.1052 59.6208 38.3822C59.6208 38.5131 59.3838 38.4885 59.2858 38.4885C59.026 38.4885 58.7715 38.4558 58.5107 38.4558C58.3145 38.4558 58.1111 38.4885 57.9067 38.4885C57.7677 38.4885 57.6777 38.5143 57.6777 38.3742C57.6777 38.1708 58.1601 38.3089 58.1601 37.9337V35.8441ZM58.6006 34.2688C58.4698 34.2688 58.0619 33.7466 58.0619 33.6239C58.0619 33.5021 58.4698 32.9707 58.6006 32.9707C58.7387 32.9707 59.1393 33.5022 59.1393 33.6239C59.1393 33.7465 58.7387 34.2688 58.6006 34.2688Z" fill="#211E1E"/>
<path d="M61.7101 34.9541C61.9872 34.9541 62.7385 35.0932 62.7385 35.5664C62.7385 35.7127 62.2735 36.0642 62.1345 36.0642C62.0608 36.0642 62.0446 35.9988 62.0281 35.9416C61.93 35.5501 61.792 35.273 61.3513 35.273C60.7227 35.273 60.5837 35.8598 60.5837 36.3667C60.5837 37.1498 61.017 38.032 61.7837 38.032C62.2652 38.032 62.6649 37.5987 62.7957 37.5987C62.8284 37.5987 62.8773 37.6063 62.8773 37.6967C62.8773 37.9012 62.1915 38.5461 61.3512 38.5461C60.42 38.5461 59.7678 37.8438 59.7678 36.9135C59.7678 35.8189 60.6082 34.9541 61.7101 34.9541Z" fill="#211E1E"/>
<path d="M64.2816 36.489C64.1345 36.489 64.1017 36.4318 64.1017 36.6924C64.1017 37.3946 64.5997 38.0315 65.3101 38.0315C65.7916 38.0315 66.1922 37.5989 66.3221 37.5989C66.3548 37.5989 66.4037 37.6066 66.4037 37.697C66.4037 37.9005 65.7187 38.5456 64.8775 38.5456C64.0699 38.5456 63.2695 38.0315 63.2695 36.9132C63.2695 35.9748 63.8002 34.9536 64.853 34.9536C65.9468 34.9536 66.3873 35.8848 66.3873 36.3091C66.3873 36.489 66.3384 36.489 66.2892 36.489H64.2816ZM65.3181 36.2028C65.4571 36.2028 65.5061 36.2106 65.5061 35.9829C65.5061 35.6732 65.2771 35.1908 64.763 35.1908C64.2733 35.1908 64.0934 35.6731 64.0934 36.0483C64.0934 36.1781 64.1089 36.2028 64.1344 36.2028H65.3181Z" fill="#211E1E"/>
<path d="M74.076 34.4643C74.0837 34.5459 74.1169 34.7342 73.9779 34.7342C73.8481 34.7342 73.7917 34.5623 73.7335 34.4561C73.3256 33.673 72.607 32.9627 71.6604 32.9627C70.4613 32.9627 69.799 34.1055 69.799 35.1992C69.799 36.3502 70.4531 37.9664 72.012 37.9664C73.2766 37.9664 73.8325 36.8971 74.0433 36.8971C74.0842 36.8971 74.1577 36.9381 74.1577 36.9863C74.1577 37.3133 73.2928 38.546 71.554 38.546C69.1621 38.546 68.7961 36.4565 68.7961 35.8116C68.7961 34.4398 69.6364 32.6367 71.6931 32.6367C72.6806 32.6367 73.3092 33.1345 73.5535 33.1345C73.7088 33.1345 73.717 32.8646 73.8324 32.8646C73.8733 32.8646 73.9287 32.8725 73.9287 32.9137L74.076 34.4643Z" fill="#211E1E"/>
<path d="M76.1238 38.5459C75.1372 38.5459 74.3687 37.8602 74.3687 36.8563C74.3687 35.7871 75.129 34.9541 76.2218 34.9541C77.242 34.9541 78.026 35.6317 78.026 36.66C78.026 37.771 77.2502 38.5459 76.1238 38.5459ZM75.2343 36.3913C75.2086 36.93 75.4715 38.2599 76.3771 38.2599C77.013 38.2599 77.2021 37.7875 77.2021 37.2315C77.2021 36.5783 76.9642 35.2156 76.0829 35.2156C75.3734 35.2156 75.2589 35.8035 75.2343 36.3913Z" fill="#211E1E"/>
<path d="M79.4785 37.6076C79.4785 38.3579 80.237 38.1136 80.237 38.3498C80.237 38.3987 80.2062 38.4887 80.1163 38.4887C79.9201 38.4887 79.454 38.456 79.186 38.456C78.8017 38.456 78.5647 38.4887 78.3612 38.4887C78.2548 38.4887 78.2221 38.4733 78.2221 38.4071C78.2221 38.1545 78.6136 38.3662 78.6136 37.763V35.8445C78.6136 35.4529 78.0913 35.6817 78.0913 35.4529C78.0913 35.3221 78.2139 35.3139 78.5001 35.2412C79.186 35.086 79.284 34.8896 79.3821 34.8896C79.4785 34.8896 79.4785 34.9469 79.4785 35.0533V35.6818C79.8382 35.2575 80.1325 34.9552 80.3351 34.9552C80.5395 34.9552 80.981 35.3221 80.981 35.4775C80.981 35.7791 80.7031 36.1624 80.5559 36.1624C80.3934 36.1624 80.3514 35.8363 79.9036 35.8363C79.454 35.8363 79.4785 36.4568 79.4785 36.5222V37.6076Z" fill="#211E1E"/>
<path d="M82.3603 39.3948C82.3603 39.9816 83.0287 39.7536 83.0287 40.0062C83.0287 40.0551 83.0031 40.1126 82.8571 40.1126C82.5564 40.1126 82.4419 40.0799 82.1231 40.0799C81.6098 40.0799 81.4789 40.1126 81.3399 40.1126C81.2328 40.1126 81.1519 40.1203 81.1519 39.99C81.1519 39.811 81.4944 39.9174 81.4944 39.6066V36.0319C81.4944 35.4278 80.9893 35.7867 80.9893 35.5013C80.9893 35.2807 81.3809 35.4115 82.1476 34.9464C82.1885 34.9206 82.2293 34.8892 82.2867 34.8892C82.3766 34.8892 82.3603 35.0609 82.3603 35.1098V35.5177C82.6382 35.1997 83.0207 34.9545 83.454 34.9545C84.3525 34.9545 84.7595 35.6976 84.7595 36.4561C84.7595 37.46 84.2871 38.5465 82.9798 38.5465C82.7936 38.5465 82.5401 38.4811 82.3603 38.3912V39.3948ZM82.3603 37.7542C82.3603 37.78 82.6545 38.252 83.2005 38.252C83.8618 38.252 84.0417 37.6234 84.0417 37.0765C84.0417 36.5133 83.7309 35.5259 82.9633 35.5259C82.7444 35.5259 82.5074 35.6567 82.3603 35.8193V37.7542Z" fill="#211E1E"/>
<path d="M86.8091 38.5459C85.8216 38.5459 85.054 37.8602 85.054 36.8563C85.054 35.7871 85.8134 34.9541 86.9072 34.9541C87.9282 34.9541 88.7113 35.6317 88.7113 36.66C88.7113 37.771 87.9355 38.5459 86.8091 38.5459ZM85.9196 36.3913C85.8939 36.93 86.1568 38.2599 87.0624 38.2599C87.6984 38.2599 87.8865 37.7875 87.8865 37.2315C87.8865 36.5783 87.6493 35.2156 86.7682 35.2156C86.0587 35.2156 85.9442 35.8035 85.9196 36.3913Z" fill="#211E1E"/>
<path d="M90.3271 37.6076C90.3271 38.3579 91.0858 38.1136 91.0858 38.3498C91.0858 38.3987 91.0531 38.4887 90.9632 38.4887C90.767 38.4887 90.3027 38.456 90.0329 38.456C89.6505 38.456 89.4134 38.4887 89.209 38.4887C89.1027 38.4887 89.0699 38.4733 89.0699 38.4071C89.0699 38.1545 89.4624 38.3662 89.4624 37.763V35.8445C89.4624 35.4529 88.9399 35.6817 88.9399 35.4529C88.9399 35.3221 89.0619 35.3139 89.348 35.2412C90.0329 35.086 90.1309 34.8896 90.2291 34.8896C90.3272 34.8896 90.3271 34.9469 90.3271 35.0533V35.6818C90.686 35.2575 90.9804 34.9552 91.1839 34.9552C91.3883 34.9552 91.8287 35.3221 91.8287 35.4775C91.8287 35.7791 91.5508 36.1624 91.4045 36.1624C91.241 36.1624 91.2002 35.8363 90.7505 35.8363C90.3027 35.8363 90.3271 36.4568 90.3271 36.5222V37.6076Z" fill="#211E1E"/>
<path d="M94.7352 37.5581C94.7352 37.966 94.7428 38.0642 94.954 38.0642C95.0521 38.0642 95.1585 38.0232 95.2156 38.0232C95.2728 38.0232 95.3055 38.056 95.3055 38.0969C95.3055 38.2594 94.8087 38.5456 94.5144 38.5456C94.1301 38.5456 94.0174 38.2195 93.9847 38.0479C93.6413 38.3249 93.1599 38.5456 92.7102 38.5456C92.2623 38.5456 91.9434 38.2277 91.9434 37.7789C91.9434 36.7752 93.029 36.6361 93.8703 36.4235C93.8703 35.7213 93.8131 35.2245 93.168 35.2245C92.8573 35.2245 92.7919 35.3053 92.7919 35.6813C92.7919 36.0647 92.2704 36.0647 92.2132 36.0647C92.1478 36.0647 92.0006 36.0492 92.0006 35.8929C92.0006 35.1834 92.9226 34.9546 93.494 34.9546C94.3343 34.9546 94.7349 35.3297 94.7349 36.1536L94.7352 37.5581ZM93.8703 36.995C93.8703 36.7751 93.8858 36.7006 93.8132 36.7006C93.4944 36.7006 92.8493 36.9786 92.8493 37.5254C92.8493 37.6562 92.857 38.0642 93.2817 38.0642C93.4614 38.0642 93.8704 37.9743 93.8704 37.7871L93.8703 36.995Z" fill="#211E1E"/>
<path d="M95.8849 35.5094H95.6316C95.4763 35.5094 95.4207 35.4358 95.4207 35.3869C95.4207 35.208 95.558 35.1834 95.7869 34.9707C96.3982 34.3912 96.5126 34.0151 96.6516 34.0151C96.717 34.0151 96.7497 34.0723 96.7497 34.105V34.9789C96.7497 35.0605 96.8396 35.0605 96.9295 35.0605H97.4928C97.6808 35.0605 97.6317 34.8805 97.7543 34.8805C97.787 34.8805 97.8034 34.9063 97.8034 34.9377C97.8034 34.9949 97.7217 35.1749 97.697 35.2403C97.6398 35.3538 97.6397 35.5009 97.5333 35.5009H96.7494V37.6312C96.7494 37.9164 96.8066 38.0799 97.1255 38.0799C97.5334 38.0799 97.6888 37.8837 97.7787 37.8837C97.8358 37.8837 97.8686 37.9095 97.8686 38.0063C97.8686 38.1454 97.4025 38.5459 96.733 38.5459C95.8028 38.5459 95.8845 37.8428 95.8845 37.6312L95.8849 35.5094Z" fill="#211E1E"/>
<path d="M98.4886 35.8441C98.4886 35.4526 97.9673 35.6814 97.9673 35.4526C97.9673 35.3218 98.088 35.3135 98.3742 35.2409C99.0601 35.0856 99.1573 34.8893 99.2555 34.8893C99.3536 34.8893 99.3535 34.9464 99.3535 35.0527V37.8035C99.3535 38.325 99.9495 38.1052 99.9495 38.3822C99.9495 38.5131 99.7122 38.4885 99.6151 38.4885C99.3534 38.4885 99.1 38.4558 98.8393 38.4558C98.6438 38.4558 98.4396 38.4885 98.2353 38.4885C98.0962 38.4885 98.0063 38.5143 98.0063 38.3742C98.0063 38.1708 98.4886 38.3089 98.4886 37.9337V35.8441ZM98.9293 34.2688C98.7993 34.2688 98.3905 33.7466 98.3905 33.6239C98.3905 33.5021 98.7994 32.9707 98.9293 32.9707C99.0673 32.9707 99.4679 33.5022 99.4679 33.6239C99.4679 33.7465 99.0674 34.2688 98.9293 34.2688Z" fill="#211E1E"/>
<path d="M101.696 38.5459C100.71 38.5459 99.9412 37.8602 99.9412 36.8563C99.9412 35.7871 100.702 34.9541 101.794 34.9541C102.815 34.9541 103.599 35.6317 103.599 36.66C103.599 37.771 102.823 38.5459 101.696 38.5459ZM100.807 36.3913C100.781 36.93 101.043 38.2599 101.95 38.2599C102.586 38.2599 102.774 37.7875 102.774 37.2315C102.774 36.5783 102.537 35.2156 101.655 35.2156C100.946 35.2156 100.832 35.8035 100.807 36.3913Z" fill="#211E1E"/>
<path d="M104.292 35.844C104.292 35.4524 103.77 35.6813 103.77 35.4525C103.77 35.3216 103.892 35.3134 104.178 35.2408C104.863 35.0855 104.961 34.8892 105.059 34.8892C105.157 34.8892 105.157 34.9463 105.157 35.0526V35.5178H105.172C105.393 35.159 105.801 34.9545 106.283 34.9545C107.165 34.9545 107.523 35.6813 107.523 36.4725V37.7952C107.523 38.3085 108.03 38.1868 108.03 38.3658C108.03 38.4639 107.981 38.4882 107.842 38.4882C107.581 38.4882 107.319 38.4555 107.148 38.4555C106.944 38.4555 106.649 38.4882 106.551 38.4882C106.396 38.4882 106.283 38.5293 106.283 38.382C106.283 38.2439 106.658 38.1702 106.658 37.8677V36.4807C106.658 35.9501 106.47 35.485 105.858 35.485C105.32 35.485 105.156 35.7947 105.156 36.268V37.7787C105.156 38.2438 105.817 38.1703 105.817 38.3656C105.817 38.4393 105.76 38.4882 105.564 38.4882C105.475 38.4882 105.181 38.4555 104.764 38.4555C104.479 38.4555 104.193 38.4882 103.948 38.4882C103.866 38.4882 103.858 38.4392 103.858 38.3983C103.858 38.1622 104.291 38.3829 104.291 37.7052L104.292 35.844Z" fill="#211E1E"/>
</g>
<defs>
<clipPath id="clip0_220_908">
<rect width="108.468" height="40.9063" fill="white" transform="translate(0.489258 -0.453125)"/>
</clipPath>
</defs>
</svg>
