<svg width="136" height="40" viewBox="0 0 136 40" fill="none" xmlns="http://www.w3.org/2000/svg">
<path fill-rule="evenodd" clip-rule="evenodd" d="M31.5089 11.4879C31.1062 11.1524 30.6363 10.8169 30.1663 10.6824L29.3609 26.454L33.2535 15.5822C33.6562 13.9034 32.7171 12.4943 31.5089 11.4879ZM25.0662 10.548L27.348 26.2523L29.6298 10.548C28.2872 10.0787 26.5433 10.0115 25.0662 10.548ZM23.1872 11.4879C21.9118 12.495 21.0398 13.9041 21.3753 15.515L25.268 26.3868L24.5298 10.6824C24.0598 10.8169 23.5226 11.1524 23.1872 11.4879ZM15.2688 12.9642C17.8861 17.5278 20.5706 22.4934 23.1206 26.8553C22.248 23.0306 21.3088 16.6552 19.9669 14.8426C18.4226 12.6953 15.2688 12.9642 15.2688 12.9642ZM10.638 15.246L21.3081 27.6615L14.7316 13.0315C12.987 13.098 11.5099 13.9714 10.638 15.246ZM32.9853 18.6015L31.2407 27.1236C33.5225 23.1651 35.8043 19.2725 38.0188 15.246C35.8708 15.447 33.7235 16.2525 32.9853 18.6015ZM38.6226 15.246L32.9853 27.8625L42.9179 17.0579C41.777 15.8498 40.2999 15.3133 38.6226 15.246ZM9.22884 20.8833C12.7188 23.5671 16.208 26.3195 19.6979 29.0034L10.3025 15.716C9.42985 17.1924 9.16161 18.937 9.22884 20.8833ZM44.1253 18.6015C43.9191 18.1809 43.6472 17.7958 43.3199 17.4606L34.7299 29.1371C38.0949 26.6348 41.4065 24.0616 44.6625 21.4191C44.7298 20.4126 44.5953 19.4069 44.1253 18.6015ZM9.29538 26.3195L18.3553 30.479C15.3353 27.4597 12.3154 24.5735 9.29538 21.6208V26.3195ZM44.6625 26.5878V22.2924L36.0725 30.6821C39.0253 29.3381 41.7098 27.9962 44.6625 26.5878ZM9.22884 30.479C11.9806 31.0834 15.0006 31.8223 17.4834 32.3588L9.22884 26.9226V30.479ZM44.6625 30.6814V27.3932C42.1125 29.0706 39.428 30.7487 37.0789 32.4261L44.6625 30.6814ZM9.22884 34.5734H17.2817L9.22884 31.1507V34.5734ZM44.6625 34.5734V31.4189C42.0452 32.5598 39.7635 33.4997 37.2807 34.5734H44.6625Z" fill="#211E1E"/>
<path fill-rule="evenodd" clip-rule="evenodd" d="M41.9108 11.0849C42.0446 6.32033 34.9317 6.25309 35.0661 11.0849C34.9989 15.5141 42.1125 15.7158 41.9108 11.0849ZM19.0263 8.60213C19.228 3.77029 11.7782 3.972 12.0472 8.60213C11.7789 13.434 19.4963 13.5012 19.0263 8.60213ZM27.3481 9.54132C30.1664 9.60855 31.2407 7.595 31.3072 5.64868C31.4417 2.69593 29.5626 1.48779 27.3481 1.48779C25.1335 1.48779 23.3889 2.76316 23.4554 5.64868C23.5227 7.26022 24.1936 9.47408 27.3481 9.54132ZM67.7481 20.6821H69.2917V11.7559H67.7481V20.6821ZM64.7953 18.1313L65.668 20.6821H67.2781L64.1909 11.7559H62.2453L59.628 19.3395L57.078 16.1178L60.5007 11.7559H58.6881L55.5337 15.9833V11.7559H53.99V20.6821H55.5337V16.3195L58.8219 20.6821H60.6337L61.5064 18.1313H64.7953ZM63.1172 13.165L64.3919 16.8567H61.9091L63.1172 13.165ZM78.9546 32.0903L77.4117 25.5804H74.6593V34.5731H76.2036V26.9223L78.1499 34.5731H79.7601L81.7064 26.9223V34.5731H83.1821V25.5804H80.5655L78.9546 32.0903ZM87.0761 25.5804L83.9889 34.5731H85.5318L86.3372 31.9566H89.6254L90.4981 34.5731H92.1082L89.021 25.5804H87.0761ZM86.7392 30.7484L87.9474 26.9896L89.222 30.7484H86.7392ZM98.4171 32.4924L94.8607 25.5804H92.7799V34.5731H94.2556V27.795L97.812 34.5731H99.8928V25.5804H98.4171V32.4924ZM127.811 33.2312H124.12V30.7484H126.804V29.4051H124.12V26.9223H127.475V25.5804H122.576V34.5731H127.811V33.2312ZM113.65 25.5804H113.382V32.5596L109.825 25.5804H107.745V33.2312H103.047V30.7484H105.798V29.4051H103.047V26.9223H106.403V25.5804H101.503V34.5731H109.22V27.7285L112.778 34.5731H114.858V26.9223H117.61V34.5731H119.153V26.9223H121.838L121.771 25.5804H113.65ZM72.4447 30.0768C72.9154 29.6075 73.3174 29.0031 73.3174 28.1305C73.3174 27.325 72.9154 26.6548 72.4447 26.2521C71.9082 25.7814 71.1701 25.5804 69.8282 25.5804H67.2781V33.2312H62.5135V30.7484H65.2653V29.4051H62.5135V26.9223H65.869V25.5804H60.9699V34.5731H68.8217V30.7484H69.5599C70.2988 31.8893 71.8417 34.5731 71.8417 34.5731H73.6543L71.2373 30.6133C71.7745 30.546 72.1099 30.345 72.4447 30.0768ZM68.8217 29.4738V26.9223H70.0964C71.3059 26.9223 71.7745 27.393 71.7745 28.1305C71.7745 29.0031 71.3052 29.4738 70.0964 29.4738H68.8217ZM84.9281 16.9232H85.7321C86.4037 17.9969 87.9467 20.6821 87.9467 20.6821H89.7592L87.3436 16.7887C87.8801 16.6549 88.2835 16.4532 88.5518 16.185C89.021 15.7823 89.4244 15.1113 89.4244 14.3059C89.4244 13.434 89.0882 12.8295 88.5518 12.4268C88.0139 11.9569 87.2771 11.7559 86.0017 11.7559H83.3838V19.4067H78.6192V16.8567H81.3716V15.5813H78.6192V13.0312H82.0419V11.7566H77.1435V20.6828H84.9281V16.9232ZM84.9281 15.514V13.0312H86.27C87.4109 13.0312 87.8801 13.5012 87.8801 14.3059C87.8801 15.1786 87.4109 15.5813 86.27 15.5813H84.9281V15.514ZM59.1581 26.2521C58.6209 25.7814 57.8827 25.5804 56.6073 25.5804H53.99V34.5731H55.5337V30.8822H56.6073C57.8827 30.8822 58.6209 30.6812 59.1581 30.2106C59.6273 29.7413 60.03 29.0697 60.03 28.197C60.0348 27.8289 59.9592 27.4642 59.8086 27.1283C59.658 26.7924 59.436 26.4934 59.1581 26.2521ZM56.809 29.541H55.5337V26.923H56.809C58.0172 26.923 58.4871 27.4609 58.4871 28.1977C58.4871 29.0031 57.9499 29.541 56.809 29.541ZM76.1371 18.1313C76.1371 16.8567 75.3316 16.0512 73.788 15.4468C72.5799 15.0441 71.9755 14.7086 71.9755 13.9704C71.9755 13.4333 72.5134 12.8295 73.6536 12.8295C74.391 12.8295 75.1965 13.0978 75.5319 13.2995V12.0241C75.1965 11.8231 74.391 11.6214 73.6536 11.6214C71.7072 11.6214 70.4319 12.6951 70.4319 14.1042C70.4319 15.4468 71.439 16.1843 72.9147 16.7215C74.0556 17.1242 74.5921 17.5269 74.5921 18.2651C74.5921 19.0033 73.9218 19.5405 72.8481 19.5405C72.0427 19.5405 70.9683 19.2715 70.4326 18.8688V20.2779C70.9018 20.5462 71.8417 20.8158 72.7816 20.8158C75.0634 20.8158 76.1371 19.5412 76.1371 18.1313ZM128.885 32.6934C128.885 31.8221 129.556 31.1505 130.427 31.1505C131.3 31.1505 131.972 31.8221 131.972 32.6934C131.975 32.8971 131.937 33.0994 131.861 33.2882C131.785 33.4771 131.671 33.6487 131.527 33.7927C131.383 33.9368 131.211 34.0504 131.022 34.1269C130.833 34.2033 130.631 34.241 130.427 34.2377C129.556 34.2384 128.885 33.5667 128.885 32.6934ZM130.427 34.5731C131.435 34.5731 132.307 33.7677 132.307 32.6934C132.307 31.619 131.435 30.815 130.427 30.815C129.42 30.815 128.549 31.619 128.549 32.6934C128.549 33.7677 129.421 34.5731 130.427 34.5731ZM130.025 32.8278H130.427L130.965 33.7677H131.367L130.696 32.8278C131.032 32.7606 131.3 32.6268 131.3 32.2248C131.3 31.8228 131.032 31.6204 130.495 31.6204H129.691V33.7677H130.026L130.025 32.8278ZM130.025 32.5596V31.8893H130.495C130.696 31.8893 130.965 31.9566 130.965 32.2248C130.965 32.5603 130.696 32.5603 130.427 32.5603L130.025 32.5596Z" fill="#211E1E"/>
</svg>
