<svg width="182" height="40" viewBox="0 0 182 40" fill="none" xmlns="http://www.w3.org/2000/svg">
<g clip-path="url(#clip0_220_966)">
<path d="M171.351 4.04697L170.937 4.03658V0.62145H163.825V38.7896H172.103V17.4896C172.103 14.028 172.567 10.0722 176.075 8.34086C177.507 7.57993 179.798 6.95605 181.446 6.95605V-0.453125C177.436 -0.313662 173.784 0.724482 171.351 4.04697ZM137.842 33.3382C130.253 33.3382 124.31 27.0364 124.31 19.8363C124.31 12.3572 130.038 6.12482 137.913 6.12482C146.004 6.12482 151.661 12.15 151.661 19.8363C151.661 27.2438 145.574 33.3382 137.842 33.3382ZM151.136 5.5738C148.151 1.49267 143.043 -0.453125 137.913 -0.453125C125.885 -0.453125 116.864 8.27141 116.864 19.9052C116.864 31.4684 126.029 39.916 137.913 39.916C143.173 39.916 148.28 37.7809 151.136 33.4501V38.7896H159.259V0.62145H151.136V5.5738ZM95.3127 6.12482C100.611 6.12482 104.262 8.825 106.482 13.3262H114.715C112.495 5.08654 103.761 -0.453125 95.2408 -0.453125C83.4989 -0.453125 74.8362 8.47933 74.8362 19.6968C74.8362 30.9148 83.356 39.916 95.1689 39.916C104.262 39.916 111.78 34.5148 114.715 26.2754H106.41C104.334 30.7064 100.253 33.3382 95.1689 33.3382C87.2221 33.3382 82.2821 26.9675 82.2821 19.6968C82.2821 12.15 87.15 6.12482 95.3127 6.12482ZM60.0146 15.1966C57.2938 14.3661 53.8578 13.6034 53.8578 10.2104C53.8578 7.64839 56.0052 6.12482 58.511 6.12482C61.5184 6.12482 63.2365 7.99448 63.5947 10.7644H71.0409C70.8973 4.11727 65.6708 -0.453125 58.8687 -0.453125C52.3538 -0.453125 46.4113 4.04697 46.4113 10.6252C46.4113 24.1979 64.5251 20.0435 64.5251 28.075C64.5251 31.3985 62.0908 33.3382 58.7974 33.3382C54.3587 33.3382 53.2811 30.3004 52.9939 26.3543H44.82C44.82 32.3778 47.6999 37.0079 53.5709 39.0156C55.2179 39.5707 56.9359 39.916 58.6546 39.916C66.2435 39.916 71.9717 35.2075 71.9717 27.6607C71.9717 20.2506 66.5301 17.1347 60.0146 15.1966ZM21.8533 33.3382C14.1209 33.3382 7.89194 27.1752 7.89194 19.6968C7.89194 12.2188 14.1209 6.12482 21.8533 6.12482C29.5862 6.12482 35.8147 12.15 35.8147 19.628C35.8147 27.1057 29.6572 33.3382 21.8533 33.3382ZM21.8533 -0.453125C10.3973 -0.453125 0.446045 8.20254 0.446045 19.4885C0.446045 30.8455 10.1831 39.916 21.8533 39.916C33.8818 39.916 43.2611 30.5677 43.2611 19.628C43.2611 8.27141 33.4522 -0.453125 21.8533 -0.453125Z" fill="#211E1E"/>
</g>
<defs>
<clipPath id="clip0_220_966">
<rect width="181" height="40.4775" fill="white" transform="translate(0.446045 -0.453125)"/>
</clipPath>
</defs>
</svg>
