<svg width="1424" height="411" viewBox="0 0 1424 411" fill="none" xmlns="http://www.w3.org/2000/svg">
<path d="M120.577 326.855C183.989 326.855 225.751 291.408 225.751 235.239C225.751 186.004 194.545 161.192 153.713 144.243L113.794 127.524C71.1115 109.725 51.4621 94.1577 51.4621 60.0212C51.4621 24.1926 71.3415 4.54333 106.781 4.54333C146.699 4.54333 176.055 35.6775 205.64 126.674H210.803V5.39286H206.34C178.748 26.4321 161.877 0 107.861 0C45.1395 0 9.70032 34.1365 9.70032 89.6143C9.70032 138.159 37.4357 162.352 80.3562 180.381L120.347 197.33C161.417 214.668 182.838 229.386 182.838 264.134C182.838 301.352 160.027 322.383 121.887 322.383C75.8135 322.383 46.0686 288.025 12.1628 190.086H7V321.463H11.551C41.5176 298.652 59.6266 326.855 120.577 326.855ZM445.812 240.402C437.647 279.931 415.766 299.12 379.628 299.12C333.553 299.12 312.363 265.444 311.203 192.557H448.973C449.362 187.625 449.593 183.074 449.593 178.149C449.593 115.579 415.766 79.0593 356.587 79.0593C290.942 79.0593 256.194 122.131 256.194 201.341V203.883C256.194 283.092 291.634 326.855 356.587 326.855C410.754 326.855 443.969 295.729 450.514 241.331L445.812 240.402ZM354.355 83.523C381.018 83.523 395.425 108.335 395.425 158.73V162.121C395.425 180.381 391.184 185.774 374.004 185.774H311.203V182.382C311.203 112.878 325.69 83.523 354.355 83.523ZM556.776 326.855C581.35 326.855 603.931 316.689 619.259 288.025L616.106 285.094C608.012 295.268 597.608 300.892 584.281 300.892C566.942 300.892 556.776 293.259 556.776 269.527V91.2267H599.229V84.4522H556.776V12.1757H550.915C545.68 69.3456 524.029 84.4522 468.313 84.4522V91.2267H501.679V271.997C501.679 307.205 521.559 326.855 556.776 326.855ZM700.328 326.855C724.901 326.855 747.482 316.689 762.811 288.025L759.657 285.094C751.564 295.268 741.16 300.892 727.833 300.892C710.494 300.892 700.328 293.259 700.328 269.527V91.2267H762.43V84.4522H700.328V12.1757H694.466C689.232 69.3456 667.581 84.4522 611.865 84.4522V91.2267H645.231V271.997C645.231 307.205 665.111 326.855 700.328 326.855ZM880.478 321.463V316.919C858.128 314.68 854.745 311.288 854.745 292.107V0.921538H850.193C834.396 16.2582 811.824 22.1118 774.145 25.9637V30.5147C796.486 32.5164 799.878 36.1382 799.878 55.3268V292.107C799.878 311.288 796.486 314.68 774.145 316.919V321.463H880.478ZM1094.68 240.402C1086.51 279.931 1064.63 299.12 1028.49 299.12C982.42 299.12 961.229 265.444 960.069 192.557H1097.84C1098.23 187.625 1098.46 183.074 1098.46 178.149C1098.46 115.579 1064.63 79.0593 1005.45 79.0593C939.808 79.0593 905.06 122.131 905.06 201.341V203.883C905.06 283.092 940.499 326.855 1005.45 326.855C1059.62 326.855 1092.84 295.729 1099.38 241.331L1094.68 240.402ZM1003.22 83.523C1029.88 83.523 1044.29 108.335 1044.29 158.73V162.121C1044.29 180.381 1040.05 185.774 1022.87 185.774H960.069V182.382C960.069 112.878 974.557 83.523 1003.22 83.523ZM1162.34 405.446C1191.69 405.446 1208.87 382.873 1234.15 311.288L1294.87 145.863C1308.43 109.026 1315.9 95.0792 1327.84 88.9158V84.4522H1263.5V88.9158C1292.87 91.6957 1301.18 109.026 1283.38 157.57L1265.51 205.884C1260.81 218.06 1255.34 233.619 1248.79 253.737H1244.32C1238.47 233.008 1233.23 216.749 1228.29 203.184L1197.78 121.901C1187.68 94.6184 1191 91.2267 1219.51 88.9158V84.4522H1113.87V88.9158C1126.04 92.0769 1129.43 96.6279 1136.22 113.807L1221.51 326.395L1212.27 347.656C1203.25 369.316 1182.91 354.67 1159.87 354.67C1142.53 354.67 1132.37 364.153 1132.37 379.712C1132.37 395.97 1143.84 405.684 1162.34 405.446ZM1379.7 325.775C1400.04 325.775 1414.76 311.288 1414.76 291.178C1414.76 270.917 1400.04 256.43 1379.7 256.43C1358.97 256.43 1344.33 270.917 1344.33 291.178C1344.33 311.288 1358.97 325.775 1379.7 325.775Z" fill="black" fill-opacity="0.1"/>
</svg>
