<svg width="48" height="47" viewBox="0 0 48 47" fill="none" xmlns="http://www.w3.org/2000/svg">
<path d="M16.3314 47C25.4504 47 31.4552 41.9029 31.4552 33.8258C31.4552 26.7463 26.9681 23.1783 21.0957 20.7409L15.3563 18.3364C9.21854 15.7774 6.39301 13.5392 6.39301 8.63114C6.39301 3.47915 9.25193 0.653608 14.3485 0.653608C20.0873 0.653608 24.3089 5.12992 28.5634 18.2147H29.3059V0.77531H28.663C24.6966 3.80007 22.27 0 14.5036 0C5.48472 0 0.388179 4.90811 0.388179 12.8856C0.388179 19.8655 4.37668 23.3447 10.5479 25.9371L16.2986 28.375C22.2038 30.8678 25.284 32.9837 25.284 37.9806C25.284 43.3324 22.0046 46.3571 16.5199 46.3571C9.89426 46.3571 5.61769 41.4157 0.742448 27.3332H0V46.2242H0.654173C4.96409 42.9447 7.56781 47 16.3314 47ZM42.801 46.8444C45.7261 46.8444 47.8421 44.7619 47.8421 41.8701C47.8421 38.9557 45.7261 36.8732 42.801 36.8732C39.8204 36.8732 37.7152 38.9557 37.7152 41.8701C37.7152 44.7619 39.8204 46.8444 42.801 46.8444Z" fill="#111111"/>
</svg>
