<svg width="84" height="24" viewBox="0 0 84 24" fill="none" xmlns="http://www.w3.org/2000/svg">
<path d="M6.77007 19.3495C3.13604 19.3495 2.05929 17.6791 0.269188 19.0288H0V11.2516H0.309566C2.32847 17.0511 4.10511 19.0822 6.85082 19.0822C9.12546 19.0822 10.4849 17.8395 10.4849 15.6346C10.4849 13.5767 9.20622 12.7081 6.75661 11.6792L4.3743 10.677C1.81702 9.60793 0.161513 8.1781 0.161513 5.30507C0.161513 2.0178 2.27464 0 6.01634 0C9.23314 0 10.2426 1.56346 11.8846 0.32071H12.1538V7.49659H11.8443C10.0811 2.11134 8.33136 0.267258 5.94905 0.267258C3.83592 0.267258 2.6515 1.42983 2.6515 3.55453C2.6515 5.57233 3.82246 6.49437 6.36629 7.55004L8.7486 8.53889C11.1847 9.54111 13.0421 11.011 13.0421 13.9241C13.0421 17.2515 10.5522 19.3495 6.77007 19.3495Z" fill="black"/>
<path d="M26.1785 14.2315L26.4611 14.2849C26.0708 17.5054 24.0923 19.3495 20.862 19.3495C16.9857 19.3495 14.8726 16.7571 14.8726 12.0667V11.9197C14.8726 7.22933 16.9454 4.67702 20.862 4.67702C24.3884 4.67702 26.4073 6.84181 26.4073 10.5433C26.4073 10.8373 26.3938 11.1046 26.3669 11.3986H18.1567C18.224 15.7148 19.4892 17.7058 22.2349 17.7058C24.3884 17.7058 25.694 16.57 26.1785 14.2315ZM20.7274 4.94427C19.0181 4.94427 18.1567 6.68145 18.1567 10.7972V10.9977H21.8984C22.9213 10.9977 23.1771 10.677 23.1771 9.59456V9.39412C23.1771 6.41419 22.3157 4.94427 20.7274 4.94427Z" fill="black"/>
<path d="M32.8005 19.3495C30.7008 19.3495 29.5164 18.1869 29.5164 16.1023V5.39861H27.5244V4.99773C30.8489 4.99773 32.141 4.10241 32.4506 0.721597H32.8005V4.99773H35.3309V5.39861H32.8005V15.9553C32.8005 17.3584 33.4062 17.8127 34.4426 17.8127C35.2367 17.8127 35.8558 17.4787 36.3403 16.8773L36.5288 17.0511C35.6135 18.7482 34.2676 19.3495 32.8005 19.3495Z" fill="black"/>
<path d="M41.3607 19.3495C39.261 19.3495 38.0766 18.1869 38.0766 16.1023V5.39861H36.0846V4.99773C39.4091 4.99773 40.7012 4.10241 41.0107 0.721597H41.3607V4.99773H45.062V5.39861H41.3607V15.9553C41.3607 17.3584 41.9664 17.8127 43.0027 17.8127C43.7968 17.8127 44.416 17.4787 44.9005 16.8773L45.0889 17.0511C44.1737 18.7482 42.8278 19.3495 41.3607 19.3495Z" fill="black"/>
<path d="M52.1013 19.0288H45.7619V18.7615C47.0944 18.6279 47.2963 18.4274 47.2963 17.2916V3.27391C47.2963 2.13806 47.0944 1.92426 45.7619 1.80399V1.53673C48.0096 1.30956 49.3555 0.962129 50.2977 0.0534516H50.5669V17.2916C50.5669 18.4274 50.7688 18.6279 52.1013 18.7615V19.0288Z" fill="black"/>
<path d="M64.8877 14.2315L65.1703 14.2849C64.78 17.5054 62.8015 19.3495 59.5712 19.3495C55.6949 19.3495 53.5818 16.7571 53.5818 12.0667V11.9197C53.5818 7.22933 55.6545 4.67702 59.5712 4.67702C63.0976 4.67702 65.1165 6.84181 65.1165 10.5433C65.1165 10.8373 65.103 11.1046 65.0761 11.3986H56.8659C56.9332 15.7148 58.1984 17.7058 60.9441 17.7058C63.0976 17.7058 64.4031 16.57 64.8877 14.2315ZM59.4366 4.94427C57.7273 4.94427 56.8659 6.68145 56.8659 10.7972V10.9977H60.6076C61.6305 10.9977 61.8862 10.677 61.8862 9.59456V9.39412C61.8862 6.41419 61.0248 4.94427 59.4366 4.94427Z" fill="black"/>
<path d="M68.9389 23.9998C67.8353 24.0131 67.1489 23.4385 67.1489 22.4764C67.1489 21.5544 67.7545 20.9931 68.7909 20.9931C70.1637 20.9931 71.3751 21.8617 71.9135 20.5789L72.4653 19.3228L67.3777 6.7349C66.9739 5.71932 66.772 5.45206 66.0452 5.26498V4.99773H72.3442V5.26498C70.6483 5.39861 70.4464 5.59906 71.0521 7.21597L72.8691 12.0266C73.1652 12.8284 73.4748 13.7905 73.8247 15.0199H74.0939C74.4842 13.8306 74.8072 12.9086 75.0899 12.187L76.1532 9.32731C77.2165 6.45428 76.7185 5.42534 74.9688 5.26498V4.99773H78.8047V5.26498C78.0913 5.62578 77.6472 6.45428 76.8396 8.63243L73.219 18.4274C71.7116 22.6635 70.6887 23.9998 68.9389 23.9998Z" fill="black"/>
<path d="M81.9138 19.2827C80.6755 19.2827 79.8007 18.4274 79.8007 17.2381C79.8007 16.0355 80.6755 15.1803 81.9138 15.1803C83.1251 15.1803 84 16.0355 84 17.2381C84 18.4274 83.1251 19.2827 81.9138 19.2827Z" fill="black"/>
</svg>
