<svg width="131" height="40" viewBox="0 0 131 40" fill="none" xmlns="http://www.w3.org/2000/svg">
<path d="M7.46258 38.359C8.75062 38.7994 10.1067 39.0366 11.5631 39.0366C17.7313 39.0366 22.035 34.5629 22.035 26.0574V0.708674L24.3739 -0.410156V26.4978C24.3739 35.1733 19.9002 40.2227 13.5628 40.2227C11.3607 40.2227 9.29303 39.545 7.46258 38.359ZM4.78611 35.7829C6.20935 36.2573 7.63258 36.5625 8.88663 36.5625C14.0712 36.5625 17.5281 33.3097 17.5281 25.9554V2.64034L19.8321 1.55549V26.1586C19.8321 33.8512 15.9348 37.7826 10.5131 37.7826C8.51342 37.7826 6.47976 37.037 4.78611 35.7829ZM3.15884 33.4788C4.41289 33.8512 5.56493 34.0884 6.58175 34.0884C10.6151 34.0884 13.0884 31.8856 13.0884 26.0906V4.60599L15.3592 3.52115V25.7522C15.3592 32.2588 12.3767 35.2073 8.107 35.2073C6.31054 35.2073 4.6161 34.5969 3.15884 33.4788ZM10.9535 26.701V5.48682L0.956787 9.99374V27.2095C0.956787 30.4964 3.02365 32.6992 6.07334 32.6992C9.08984 32.6992 10.9535 30.4624 10.9535 26.701Z" fill="#211E1E"/>
<path d="M37.2451 5.45047V13.3601C37.2451 16.281 38.9719 18.5624 42.2766 18.5624C45.1118 18.5624 47.2442 16.4729 47.2442 13.2961V5.6642C47.2442 4.83278 47.7988 4.15029 48.7363 4.08633L49.035 4.06449V3.31885H44.0674V4.06449L44.3872 4.08633C45.3037 4.15029 45.8793 4.81092 45.8793 5.6642V13.0621C45.8793 15.4715 44.622 16.9416 42.6604 16.9416C40.6777 16.9416 39.5046 15.3856 39.5046 13.0403V5.45047C39.5046 4.61905 39.9523 4.15029 40.8906 4.08633L41.1894 4.06449V3.31885H35.5393V4.06449L35.8591 4.08633C36.7755 4.15029 37.2451 4.598 37.2451 5.45047Z" fill="#211E1E"/>
<path d="M43.9518 22.3221L44.2716 22.3432C45.0602 22.3861 45.6576 22.7059 45.6576 23.6013V28.2491H40.0715V23.6013C40.0715 22.7059 40.669 22.4079 41.4575 22.3432L41.7563 22.3221V21.5757H36.1062V22.3221L36.426 22.3432C37.2145 22.3861 37.812 22.7059 37.812 23.6013V34.4747C37.812 35.3701 37.2145 35.6899 36.426 35.732L36.1062 35.7539V36.4995H41.7563V35.7539L41.4575 35.732C40.669 35.668 40.0715 35.3701 40.0715 34.4747V29.4003H45.6576V34.4747C45.6576 35.3701 45.0602 35.6899 44.2716 35.732L43.9518 35.7539V36.4995H49.6019V35.7539L49.3032 35.732C48.5146 35.668 47.9172 35.3701 47.9172 34.4747V23.6013C47.9172 22.7059 48.5146 22.4079 49.3032 22.3432L49.6019 22.3221V21.5757H43.9518" fill="#211E1E"/>
<path d="M49.0134 7.6894V8.39294L49.4401 8.41399C50.1007 8.45691 50.5063 8.77668 50.5063 9.67207V16.2386C50.5063 17.134 50.0578 17.4537 49.3332 17.4967L49.0134 17.5177V18.2423H54.066V17.5177L53.7681 17.4967C53.0427 17.4537 52.595 17.134 52.595 16.2386V12.742C52.6379 10.1837 53.7462 8.64878 55.0472 8.64878C56.0487 8.64878 56.7101 9.33124 56.7101 10.6525V16.2386C56.7101 17.134 56.2624 17.4537 55.537 17.4967L55.2172 17.5177V18.2423H60.2698V17.5177L59.9719 17.4967C59.2473 17.4537 58.7988 17.134 58.7988 16.2386V10.4185C58.7988 8.75563 57.7755 7.36963 55.7499 7.36963C54.3218 7.36963 53.0856 8.22212 52.595 9.73603V7.41254" fill="#211E1E"/>
<path d="M78.1789 18.4556C80.3316 18.4556 81.5476 16.9846 82.0374 15.3217L81.1209 15.0659C80.6943 16.2171 79.9487 17.1125 78.4558 17.1125C76.729 17.1125 75.5559 15.4715 75.5559 12.8695H82.1872V12.2517C82.1872 9.50161 80.5664 7.28418 77.9652 7.28418C75.173 7.28418 73.3174 9.94849 73.3174 12.8695C73.3174 15.7904 75.109 18.4556 78.1789 18.4556ZM77.9442 8.49934C79.1164 8.49934 79.8629 9.58662 79.9487 11.8251H75.5988C75.8125 9.75744 76.665 8.49934 77.9442 8.49934Z" fill="#211E1E"/>
<path d="M67.6892 15.8549C67.6892 17.5178 68.6914 18.4561 70.2903 18.4561C71.7824 18.4561 72.7636 17.3688 73.2113 15.812L72.4438 15.5991C72.1451 16.4944 71.6545 17.049 70.972 17.049C70.0766 17.049 69.7787 16.3876 69.7787 15.6201V8.71276H72.6996V7.60364H69.7787V4.3208H68.7124C68.3068 6.79406 67.0496 7.68945 65.7275 7.96633V8.71276H67.6892" fill="#211E1E"/>
<path d="M63.2123 5.68518C63.9369 5.68518 64.5764 5.06749 64.5764 4.2571C64.5764 3.48962 63.9369 2.87109 63.2123 2.87109C62.4667 2.87109 61.8481 3.48962 61.8481 4.2571C61.8481 5.06749 62.4667 5.68518 63.2123 5.68518Z" fill="#211E1E"/>
<path d="M62.2317 9.67163V16.2382C62.2317 17.1335 61.784 17.4533 61.0587 17.4962L60.7389 17.5173V18.2419H65.7923V17.5173L65.4935 17.4962C64.7689 17.4533 64.3213 17.1335 64.3213 16.2382V7.41211L60.6328 7.68899V8.39251L61.1655 8.41356C61.8261 8.43542 62.2317 8.77625 62.2317 9.67163Z" fill="#211E1E"/>
<path d="M87.6225 18.4554C89.0296 18.4554 90.1169 17.7308 90.5864 16.4946V18.2417H94.1469V17.5179L93.8482 17.496C93.1236 17.4532 92.6759 17.1334 92.6759 16.238V3.04102L89.0514 3.36079V4.06431L89.5202 4.08617C90.1808 4.10722 90.5864 4.44805 90.5864 5.34346V9.18086C90.1169 7.98754 89.0296 7.28402 87.6225 7.28402C84.8295 7.28402 83.2524 9.94834 83.2524 12.8693C83.2524 15.7903 84.8295 18.4554 87.6225 18.4554ZM87.9853 8.49918C89.5631 8.49918 90.5864 10.205 90.5864 12.8693C90.5864 15.5344 89.5631 17.2402 87.9853 17.2402C86.4932 17.2402 85.512 15.5563 85.512 12.8693C85.512 10.1831 86.4932 8.49918 87.9853 8.49918Z" fill="#211E1E"/>
<path d="M119.359 25.584C118.123 25.584 117.057 26.3944 116.588 27.8435V25.6698L113.006 25.9467V26.6502L113.432 26.6713C114.094 26.7142 114.499 27.034 114.499 27.9293V34.4959C114.499 35.3912 114.05 35.711 113.326 35.7539L113.006 35.775V36.4995H118.059V35.775L117.761 35.7539C117.036 35.711 116.588 35.3912 116.588 34.4959V30.9143C116.63 28.2491 117.782 26.5862 119.189 26.5862C119.508 26.5862 119.722 26.6713 119.892 26.8631C119.53 27.055 119.295 27.4177 119.295 27.8654C119.295 28.4839 119.807 28.9956 120.426 28.9956C121.044 28.9956 121.556 28.4839 121.556 27.7585C121.556 26.4154 120.554 25.584 119.359 25.584Z" fill="#211E1E"/>
<path d="M126.224 25.5415C123.432 25.5415 121.576 28.2058 121.576 31.1268C121.576 34.0477 123.367 36.7129 126.438 36.7129C128.59 36.7129 129.806 35.2419 130.296 33.579L129.38 33.3232C128.953 34.4744 128.207 35.3698 126.715 35.3698C124.988 35.3698 123.815 33.728 123.815 31.1268H130.446V30.5091C130.446 27.7589 128.825 25.5415 126.224 25.5415ZM123.858 30.0824C124.071 28.0148 124.924 26.7567 126.203 26.7567C127.375 26.7567 128.122 27.8439 128.207 30.0824" fill="#211E1E"/>
<path d="M111.194 34.7306V29.1655C111.194 26.8849 109.765 25.541 107.356 25.541C105.288 25.541 103.455 26.906 103.455 28.462C103.455 29.1234 103.945 29.6351 104.585 29.6351C105.203 29.6351 105.715 29.1234 105.715 28.5049C105.715 28.0782 105.48 27.6945 105.139 27.5026C105.523 26.9699 106.205 26.6502 107.037 26.6502C108.337 26.6502 109.126 27.6306 109.126 29.2724V29.763L105.971 31.0632C103.859 31.9375 103.135 32.705 103.135 34.091C103.135 35.6899 104.286 36.7132 106.099 36.7132C107.463 36.7132 108.593 35.8818 109.105 34.6237V34.9435C109.105 36.0307 109.872 36.6922 111.151 36.6922C111.663 36.6922 112.068 36.6274 112.494 36.4995V35.7749C111.599 35.8818 111.194 35.541 111.194 34.7306ZM109.105 32.3212C108.998 34.1971 108.06 35.4551 106.759 35.4551C105.821 35.4551 105.224 34.8156 105.224 33.8344C105.224 32.9608 105.693 32.2784 106.589 31.8946L109.126 30.7652" fill="#211E1E"/>
<path d="M81.261 33.8559C80.9622 34.7513 80.4716 35.3059 79.7899 35.3059C78.8946 35.3059 78.5958 34.6452 78.5958 33.8778V26.9696H81.5168V25.8613H78.5958V22.5776H77.5296C77.1248 25.0509 75.8667 25.9463 74.5447 26.224V26.9696H76.5063V34.1117C76.5063 35.7754 77.5086 36.7129 79.1075 36.7129C80.6003 36.7129 81.5807 35.6256 82.0284 34.0696" fill="#211E1E"/>
<path d="M67.7447 34.7306V29.1655C67.7447 26.8849 66.3158 25.541 63.9065 25.541C61.8388 25.541 60.0051 26.906 60.0051 28.462C60.0051 29.1234 60.4957 29.6351 61.1353 29.6351C61.7538 29.6351 62.2654 29.1234 62.2654 28.5049C62.2654 28.0782 62.0307 27.6945 61.6898 27.5026C62.0736 26.9699 62.7552 26.6502 63.5875 26.6502C64.8877 26.6502 65.6762 27.6306 65.6762 29.2724V29.763L62.5213 31.0632C60.4099 31.9375 59.6853 32.705 59.6853 34.091C59.6853 35.6899 60.8365 36.7132 62.6492 36.7132C64.0133 36.7132 65.1435 35.8818 65.6552 34.6237V34.9435C65.6552 36.0307 66.4226 36.6922 67.7018 36.6922C68.2134 36.6922 68.6182 36.6274 69.0449 36.4995V35.7749C68.1495 35.8818 67.7447 35.541 67.7447 34.7306ZM65.6552 32.3212C65.5483 34.1971 64.6108 35.4551 63.3098 35.4551C62.3723 35.4551 61.7748 34.8156 61.7748 33.8344C61.7748 32.9608 62.2436 32.2784 63.1398 31.8946L65.6762 30.7652" fill="#211E1E"/>
<path d="M98.8923 35.3698C97.1655 35.3698 95.9924 33.728 95.9924 31.1268C95.9924 28.4835 97.1436 26.7996 98.8713 26.7996C99.6388 26.7996 100.235 27.0546 100.597 27.5242C100.278 27.7371 100.065 28.0998 100.065 28.5046C100.065 29.1231 100.576 29.6347 101.195 29.6347C101.834 29.6347 102.325 29.1231 102.325 28.3977C102.325 27.1186 101.046 25.5415 98.7644 25.5415C95.5876 25.5415 93.7539 28.2066 93.7539 31.1268C93.7539 34.0477 95.5447 36.7129 98.6154 36.7129C100.726 36.7129 101.919 35.3058 102.389 33.7069L101.472 33.43C101.067 34.5173 100.341 35.3698 98.8923 35.3698Z" fill="#211E1E"/>
<path d="M73.1384 34.4958V21.2988L69.5139 21.6186V22.3221L69.9827 22.3432C70.6441 22.3651 71.0489 22.7059 71.0489 23.6013V34.4958C71.0489 35.3912 70.6012 35.711 69.8766 35.7539L69.5568 35.7749V36.4995H74.6094V35.7749L74.3107 35.7539C73.5861 35.711 73.1384 35.3912 73.1384 34.4958Z" fill="#211E1E"/>
<path d="M91.8144 34.4958V28.6757C91.8144 27.0129 90.7911 25.6268 88.7655 25.6268C87.3374 25.6268 86.1003 26.4793 85.6098 27.9933V21.2988L81.9861 21.6186V22.3221L82.4548 22.3432C83.1154 22.3651 83.521 22.7059 83.521 23.6013V34.4958C83.521 35.3912 83.0733 35.711 82.348 35.7539L82.0282 35.7749V36.4995H87.0816V35.7749L86.7828 35.7539C86.0575 35.711 85.6098 35.3912 85.6098 34.4958V30.9992C85.6527 28.441 86.7618 26.906 88.062 26.906C89.0634 26.906 89.7248 27.5885 89.7248 28.9105V34.4958C89.7248 35.3912 89.2771 35.711 88.5526 35.7539L88.2328 35.7749V36.4995H93.2854V35.7749L92.9867 35.7539C92.2621 35.711 91.8144 35.3912 91.8144 34.4958Z" fill="#211E1E"/>
<path d="M54.6541 25.5415C51.8611 25.5415 50.0063 28.2058 50.0063 31.1268C50.0063 34.0477 51.7971 36.7129 54.8671 36.7129C57.0205 36.7129 58.2357 35.2419 58.7263 33.579L57.8091 33.3232C57.3832 34.4744 56.6368 35.3698 55.1448 35.3698C53.4179 35.3698 52.2448 33.728 52.2448 31.1268H58.8753V30.5091C58.8753 27.7589 57.2553 25.5415 54.6541 25.5415ZM52.2878 30.0824C52.5015 28.0148 53.354 26.7567 54.6331 26.7567C55.8054 26.7567 56.5518 27.8439 56.6368 30.0824" fill="#211E1E"/>
</svg>
